# xmcd
#
# Track frame offsets:
#	150
#	17657
#	37622
#	51282
#	65457
#	81310
#	96507
#	109987
#	127010
#	139920
#	150145
#	162447
#	178112
#	191537
#	204280
#	214087
#	230387
#	244890
#	255590
#	266885
#
# Disc length: 3681 seconds
#
# Revision: 4
# Processed by: cddbd v1.5.2PL0 Copyright (c) Steve Scherf et al.
# Submitted via: EZCDAudioConverter 7.0.0.1
#
DISCID=1a0e5f14
DTITLE=BARRERITO - RAIZES SERTANEJAS [CD 496731 2) EMI COPACABANA
DYEAR=1998
DGENRE=SERTANEJO
TTITLE0=MORTO POR DENTRO (BY GILMAR SINISTRO)
TTITLE1=JUVENTUDE QUE PERDI (BY GILMAR SINISTRO)
TTITLE2=ESTA NOITE (BY GILMAR SINISTRO)
TTITLE3=ONDE ESTÃO OS MEUS PASSOS (BY GILMAR SINISTRO)
TTITLE4=NOSSOS MOMENTOS DE AMOR (BY GILMAR SINISTRO)
TTITLE5=O MENINO DA CANOA (BY GILMAR SINISTRO)
TTITLE6=O CANTOR DAS ANDORINHAS (BY GILMAR SINISTRO)
TTITLE7=SENTIDOS (BY GILMAR SINISTRO)
TTITLE8=VESTIDO COLADO (BY GILMAR SINISTRO)
TTITLE9=VOCÊ É MINHA RAZÃO (BY GILMAR SINISTRO)
TTITLE10=CADEIRA AMIGA (BY GILMAR SINISTRO)
TTITLE11=AMANHÃ (BY GILMAR SINISTRO)
TTITLE12=PRISIONEIRO DO DESTINO (BY GILMAR SINISTRO)
TTITLE13=UM OMBRO PRA CHORAR (BY GILMAR SINISTRO)
TTITLE14=TÁ DO JEITO QUE EU QUERIA (BY GILMAR SINISTRO)
TTITLE15=QUE REI SOU EU (BY GILMAR SINISTRO)
TTITLE16=CIGARRO, WHISKY E GÊLO (BY GILMAR SINISTRO)
TTITLE17=DEVOLVA MEUS PASSOS (BY GILMAR SINISTRO)
TTITLE18=O FILHO DO CARRETEIRO (BY GILMAR SINISTRO)
TTITLE19=O BOM CABRITO NÃO BERRA (BY GILMAR SINISTRO)
EXTD=
EXTT0=
EXTT1=
EXTT2=
EXTT3=
EXTT4=
EXTT5=
EXTT6=
EXTT7=
EXTT8=
EXTT9=
EXTT10=
EXTT11=
EXTT12=
EXTT13=
EXTT14=
EXTT15=
EXTT16=
EXTT17=
EXTT18=
EXTT19=
PLAYORDER=
